Coordinates
version=1
nRows=21
nColumns=22
inDegrees=yes

Units are S.I. units (second, meters, Newtons, ...)
If the header above contains a line with 'inDegrees', this indicates whether rotational values are in degrees (yes) or radians (no).

endheader
time	pelvis_tilt	pelvis_list	pelvis_rotation	pelvis_tx	pelvis_ty	pelvis_tz	hip_flexion_r	hip_adduction_r	hip_rotation_r	knee_angle_r	ankle_angle_r	subtalar_angle_r	hip_flexion_l	hip_adduction_l	hip_rotation_l	knee_angle_l	ankle_angle_l	subtalar_angle_l	lumbar_extension	lumbar_bending	lumbar_rotation
      1.91000000	      1.47792613	     -2.04256697	     21.83091188	      0.61232638	      0.91613732	      0.92695131	     18.19948635	     -1.51526389	      6.17048378	    -67.81263624	    -12.13070700	     12.72087618	      9.08149438	      5.39814534	    -23.58837070	    -18.14457327	      9.20797147	    -11.07566937	     -8.17258105	     -3.40557379	      0.51373642
      1.92000000	      1.42009230	     -2.04610171	     23.25253927	      0.61730901	      0.91637461	      0.92039443	     19.43951052	     -1.55209212	      6.38209829	    -67.37379199	    -10.51113491	     12.46575836	      8.39638616	      5.85943984	    -22.23651322	    -17.65583218	      9.28371524	    -10.75816644	     -8.14997876	     -3.32558271	     -0.08728988
      1.93000000	      1.36246150	     -2.03489657	     24.66424012	      0.62223047	      0.91655466	      0.91380814	     20.60126894	     -1.63580995	      6.59957686	    -66.70891551	     -8.93174291	     12.10529874	      7.68010105	      6.31518798	    -20.88367884	    -17.14527403	      9.35227371	    -10.47377148	     -8.13219270	     -3.26830163	     -0.65139081
      1.94000000	      1.32194006	     -2.00670794	     26.05358244	      0.62710413	      0.91670667	      0.90725568	     21.66884533	     -1.74056001	      6.82770116	    -65.83055678	     -7.43416558	     11.45165016	      6.92333809	      6.75341910	    -19.50229939	    -16.62863848	      9.40860989	    -10.18007533	     -8.14434180	     -3.23723860	     -1.14240488
      1.95000000	      1.28529810	     -1.97115532	     27.43126603	      0.63197957	      0.91681107	      0.90066560	     22.64281183	     -1.88192179	      7.01673482	    -64.73021243	     -6.00539851	     10.67057547	      6.13543060	      7.16515394	    -18.18628041	    -16.09994161	      9.49351313	     -9.95401659	     -8.15761195	     -3.21676007	     -1.62000463
      1.96000000	      1.24593315	     -1.93492304	     28.82109759	      0.63680292	      0.91687607	      0.89408932	     23.53668806	     -2.03938597	      7.16404775	    -63.42169533	     -4.76953945	      9.86315668	      5.34003047	      7.55182788	    -16.80304971	    -15.57392813	      9.52720900	     -9.79236361	     -8.17378703	     -3.21447298	     -2.08171260
      1.97000000	      1.21722254	     -1.90459451	     30.22011877	      0.64164442	      0.91691080	      0.88749029	     24.32541721	     -2.20518692	      7.23595318	    -61.90147068	     -3.66094022	      8.93122304	      4.52058965	      7.89105111	    -15.44963178	    -15.04870186	      9.56685843	     -9.66605273	     -8.18795365	     -3.21298440	     -2.53709058
      1.98000000	      1.20997259	     -1.87068617	     31.61549754	      0.64645887	      0.91692874	      0.88097817	     24.99966422	     -2.34451451	      7.28504321	    -60.18107814	     -2.66961700	      7.91474366	      3.70110740	      8.17345656	    -14.10737130	    -14.58953393	      9.63169846	     -9.56943793	     -8.23533587	     -3.22526985	     -2.98231670
      1.99000000	      1.21556518	     -1.84917856	     33.03264930	      0.65128911	      0.91692207	      0.87448669	     25.56807683	     -2.46010990	      7.26743278	    -58.26611467	     -1.85157566	      6.96066653	      2.87953255	      8.39346930	    -12.76756150	    -14.16025250	      9.69585512	     -9.49874348	     -8.28056232	     -3.23808706	     -3.44029297
      2.00000000	      1.23175330	     -1.84911446	     34.46637641	      0.65612349	      0.91688910	      0.86802145	     26.03816052	     -2.53318165	      7.20223529	    -56.15808092	     -1.23120906	      6.17682178	      2.06934993	      8.54435335	    -11.42928867	    -13.76396889	      9.75099699	     -9.45023487	     -8.31855708	     -3.23953463	     -3.91664590
      2.01000000	      1.26860490	     -1.84975381	     35.90388513	      0.66098285	      0.91682259	      0.86163058	     26.39880881	     -2.55252291	      7.13546593	    -53.88525518	     -0.74592825	      5.51426869	      1.27264150	      8.63213391	    -10.10396450	    -13.44299603	      9.84428618	     -9.41284361	     -8.37198760	     -3.25064681	     -4.38328608
      2.02000000	      1.25468340	     -1.88840279	     37.35381685	      0.66582579	      0.91659223	      0.85531065	     26.75272830	     -2.54004179	      7.06121543	    -51.47183416	     -0.44837429	      5.22812928	      0.59212072	      8.67504597	     -8.77269779	    -13.21967250	      9.98272442	     -9.39384943	     -8.35367801	     -3.28259628	     -4.88487431
      2.03000000	      1.31105181	     -1.92187576	     38.77630278	      0.67077907	      0.91640156	      0.84900843	     26.94325827	     -2.43991533	      7.00487280	    -48.88590382	     -0.30153671	      4.93946577	     -0.14408672	      8.63970722	     -7.48963281	    -13.02229699	     10.12133920	     -9.38960161	     -8.38654420	     -3.28843653	     -5.34448872
      2.04000000	      1.43693742	     -1.92606934	     40.13255049	      0.67589579	      0.91624728	      0.84272246	     26.96535418	     -2.25309551	      7.01601621	    -46.14464836	     -0.24717461	      4.67444594	     -0.95875708	      8.54675545	     -6.30123333	    -12.82934369	     10.25548004	     -9.40117875	     -8.48177199	     -3.28597158	     -5.73021128
      2.05000000	      1.45256933	     -1.99164305	     41.48348927	      0.68097835	      0.91577923	      0.83648867	     27.08315972	     -2.06605096	      7.05044232	    -43.32827738	     -0.42832394	      4.67944103	     -1.55866869	      8.44784401	     -5.12142949	    -12.78600005	     10.45158832	     -9.44545489	     -8.43406082	     -3.32176963	     -6.13011293
      2.06000000	      1.51567000	     -2.02908885	     42.76369527	      0.68620305	      0.91529690	      0.83022348	     27.06817440	     -1.82897894	      7.14207703	    -40.39228681	     -0.71060734	      4.76885607	     -2.21508958	      8.31907723	     -4.04528591	    -12.75032909	     10.64534724	     -9.53233707	     -8.42954058	     -3.35504554	     -6.47005010
      2.07000000	      1.59641841	     -2.04316594	     43.96001769	      0.69157210	      0.91475446	      0.82391943	     26.95891622	     -1.56311162	      7.29118380	    -37.36116458	     -1.07250285	      4.99078052	     -2.90574542	      8.18085000	     -3.09638776	    -12.70985467	     10.83640331	     -9.67602585	     -8.43792954	     -3.40140776	     -6.76008466
      2.08000000	      1.62026239	     -2.08309221	     45.11096529	      0.69693039	      0.91400059	      0.81759244	     26.87991231	     -1.32358358	      7.41780446	    -34.28231077	     -1.59390412	      5.26833289	     -3.48153624	      8.05467160	     -2.23080654	    -12.76317222	     11.06377988	     -9.84165885	     -8.37811920	     -3.46940926	     -7.00087805
      2.09000000	      1.65321809	     -2.10707413	     46.19483038	      0.70236724	      0.91317310	      0.81119990	     26.72795248	     -1.09370934	      7.50571923	    -31.14280970	     -2.14716178	      5.64632402	     -4.06772969	      7.92948048	     -1.47751622	    -12.83705070	     11.30058539	    -10.04220251	     -8.32928498	     -3.54758542	     -7.18655960
      2.10000000	      1.66584376	     -2.13764677	     47.23131642	      0.70782875	      0.91222139	      0.80473959	     26.55067008	     -0.89680476	      7.49121444	    -27.96477716	     -2.72375686	      6.04145357	     -4.60988879	      7.81052459	     -0.84458699	    -12.95754623	     11.56919909	    -10.23045446	     -8.25498095	     -3.63353653	     -7.34927148
      2.11000000	      1.69372083	     -2.15422891	     48.22261623	      0.71333161	      0.91122171	      0.79816155	     26.29284371	     -0.72255758	      7.34567047	    -24.74853458	     -3.24598686	      6.51892878	     -5.17671041	      7.68946720	     -0.30537360	    -13.08125255	     11.84294266	    -10.40487474	     -8.19817120	     -3.71199891	     -7.46907495
